<?xml version="1.0" standalone="no"?>
<!DOCTYPE svg PUBLIC "-//W3C//DTD SVG 20010904//EN"
 "http://www.w3.org/TR/2001/REC-SVG-20010904/DTD/svg10.dtd">
<svg version="1.0" xmlns="http://www.w3.org/2000/svg"
 width="2000.000000pt" height="434.000000pt" viewBox="0 0 2000.000000 434.000000"
 preserveAspectRatio="xMidYMid meet">

<g transform="translate(0.000000,434.000000) scale(0.100000,-0.100000)"
fill="#000000" stroke="none">
<path d="M2180 3960 c-176 -30 -512 -171 -734 -308 -345 -213 -621 -480 -838
-812 -87 -131 -226 -412 -273 -548 -19 -57 -35 -107 -35 -110 0 -4 119 112
264 257 l265 265 3 -635 c4 -709 2 -685 78 -844 89 -186 267 -335 465 -390 34
-9 117 -19 192 -22 l132 -6 16 -41 c58 -145 207 -328 312 -384 88 -46 233 -77
233 -49 0 7 40 96 90 197 262 538 350 907 350 1479 0 470 -70 892 -231 1404
-49 156 -131 374 -184 495 -30 66 -28 65 -105 52z m-439 -382 c-96 -175 -197
-541 -231 -843 -18 -160 -6 -145 -110 -145 l-90 0 0 108 c0 171 -31 242 -130
292 l-43 22 309 309 c170 170 312 309 317 309 4 0 -6 -24 -22 -52z m-267
-1600 c9 -188 33 -426 57 -566 10 -63 19 -116 19 -118 0 -2 -8 -4 -18 -4 -34
0 -122 52 -156 92 -62 72 -66 96 -66 435 l0 303 79 0 79 0 6 -142z"/>
<path d="M2361 3883 c311 -319 505 -662 614 -1089 56 -217 76 -377 82 -654 10
-481 -51 -776 -239 -1155 -120 -240 -286 -465 -456 -617 l-53 -47 53 6 c216
24 500 149 723 317 787 595 1008 1599 530 2411 -285 484 -816 864 -1270 910
l-70 7 86 -89z"/>
<path d="M9242 3633 l3 -318 340 0 340 0 3 318 2 317 -345 0 -345 0 2 -317z"/>
<path d="M18180 3314 l0 -636 -38 49 c-132 166 -301 274 -508 324 -114 28
-319 30 -439 4 -359 -76 -619 -325 -750 -719 -121 -361 -123 -829 -4 -1188 65
-197 156 -354 283 -486 208 -217 495 -326 806 -309 271 16 474 120 624 321
l36 49 0 -90 c0 -50 3 -118 6 -152 l7 -61 328 0 329 0 0 1765 0 1765 -340 0
-340 0 0 -636z m-415 -839 c231 -49 366 -220 420 -530 24 -135 25 -411 2 -512
-78 -350 -337 -560 -634 -515 -114 18 -193 60 -283 151 -159 160 -231 390
-217 697 14 306 94 510 245 623 116 88 299 121 467 86z"/>
<path d="M4617 3703 c-12 -11 -8 -2295 4 -2426 16 -187 66 -358 140 -484 45
-75 177 -213 252 -264 176 -117 402 -179 657 -179 582 0 964 320 1039 873 6
45 11 255 11 493 l0 414 -320 0 -320 0 0 -382 c-1 -415 -8 -492 -53 -592 -34
-73 -97 -140 -166 -173 -52 -26 -65 -28 -176 -28 -116 0 -123 1 -187 33 -95
47 -149 122 -185 254 -14 55 -17 142 -20 671 l-4 607 715 0 716 0 0 245 0 245
-715 0 -715 0 0 350 0 350 -333 0 c-184 0 -337 -3 -340 -7z"/>
<path d="M7800 3069 c-479 -36 -777 -221 -891 -551 -32 -93 -59 -236 -59 -309
l0 -49 316 2 316 3 22 75 c47 163 136 254 286 291 76 18 269 16 347 -4 178
-46 264 -147 246 -287 -10 -80 -50 -139 -120 -174 -55 -28 -173 -55 -398 -91
-566 -91 -726 -147 -890 -310 -129 -128 -184 -256 -207 -483 -31 -311 73 -560
295 -703 65 -42 200 -90 313 -111 92 -17 388 -17 484 1 183 33 343 103 471
207 l76 62 12 -79 c7 -43 17 -92 22 -109 l11 -30 319 0 320 0 -4 923 c-3 889
-4 925 -24 1017 -42 191 -89 297 -182 408 -147 174 -394 275 -741 302 -149 11
-185 11 -340 -1z m597 -1589 c-5 -191 -21 -257 -87 -357 -129 -197 -373 -307
-608 -273 -179 25 -263 129 -250 309 7 86 40 161 93 210 82 76 193 117 474
176 189 40 300 75 346 110 39 30 39 31 32 -175z"/>
<path d="M11360 3070 c-109 -11 -203 -37 -299 -81 -68 -32 -98 -54 -165 -121
-46 -46 -101 -114 -124 -153 l-42 -70 0 183 0 182 -325 0 -325 0 0 -1295 0
-1295 345 0 344 0 4 868 c2 750 5 874 18 917 44 140 124 230 236 265 115 35
308 24 398 -23 38 -20 88 -72 111 -117 48 -95 48 -89 51 -1027 l4 -883 344 0
345 0 0 823 c0 675 3 834 15 890 30 141 132 283 246 343 50 27 62 29 169 29
108 0 118 -2 168 -29 104 -58 176 -160 213 -304 18 -71 19 -117 19 -914 l0
-838 335 0 336 0 -3 983 -3 982 -29 85 c-52 156 -120 266 -227 370 -75 73
-142 116 -256 165 -114 49 -215 68 -368 68 -308 0 -520 -109 -657 -339 -18
-30 -35 -54 -39 -54 -3 0 -21 21 -39 47 -132 183 -283 294 -445 327 -91 18
-260 26 -355 16z"/>
<path d="M14967 3069 c-782 -69 -1194 -679 -1086 -1609 49 -421 211 -724 487
-907 135 -90 302 -151 507 -184 122 -20 430 -17 538 4 410 83 705 332 852 723
14 36 25 73 25 80 0 12 -59 14 -350 14 l-350 0 -11 -27 c-45 -126 -167 -222
-318 -254 -85 -17 -263 -7 -333 20 -209 80 -339 271 -372 544 l-7 57 892 0
892 0 -6 153 c-35 867 -392 1327 -1077 1387 -127 11 -154 11 -283 -1z m239
-550 c143 -26 273 -123 342 -257 40 -78 72 -191 72 -256 l0 -36 -525 0 -525 0
6 43 c18 128 59 232 120 313 123 162 304 231 510 193z"/>
<path d="M9240 1715 l0 -1295 345 0 345 0 0 1295 0 1295 -345 0 -345 0 0
-1295z"/>
<path d="M18980 775 l0 -355 365 0 365 0 0 355 0 355 -365 0 -365 0 0 -355z"/>
</g>
</svg>
